<svg xmlns="http://www.w3.org/2000/svg" xmlns:xlink="http://www.w3.org/1999/xlink" width="500" zoomAndPan="magnify" viewBox="0 0 375 374.999991" height="500" preserveAspectRatio="xMidYMid meet" version="1.0"><defs><clipPath id="435f5599be"><path d="M 0 0 L 175.535156 0 L 175.535156 175.535156 L 0 175.535156 Z M 0 0 " clip-rule="nonzero"/></clipPath><clipPath id="4c7bd65fda"><path d="M 7.5 0 L 168.035156 0 C 170.023438 0 171.929688 0.789062 173.335938 2.195312 C 174.742188 3.601562 175.535156 5.511719 175.535156 7.5 L 175.535156 168.035156 C 175.535156 170.023438 174.742188 171.929688 173.335938 173.335938 C 171.929688 174.742188 170.023438 175.535156 168.035156 175.535156 L 7.5 175.535156 C 5.511719 175.535156 3.601562 174.742188 2.195312 173.335938 C 0.789062 171.929688 0 170.023438 0 168.035156 L 0 7.5 C 0 5.511719 0.789062 3.601562 2.195312 2.195312 C 3.601562 0.789062 5.511719 0 7.5 0 Z M 7.5 0 " clip-rule="nonzero"/></clipPath><clipPath id="ec121489bd"><path d="M 0 199.464844 L 175.535156 199.464844 L 175.535156 375 L 0 375 Z M 0 199.464844 " clip-rule="nonzero"/></clipPath><clipPath id="e5a95c5f13"><path d="M 7.5 199.464844 L 168.035156 199.464844 C 170.023438 199.464844 171.929688 200.257812 173.335938 201.664062 C 174.742188 203.070312 175.535156 204.976562 175.535156 206.964844 L 175.535156 367.5 C 175.535156 369.488281 174.742188 371.398438 173.335938 372.804688 C 171.929688 374.210938 170.023438 375 168.035156 375 L 7.5 375 C 5.511719 375 3.601562 374.210938 2.195312 372.804688 C 0.789062 371.398438 0 369.488281 0 367.5 L 0 206.964844 C 0 204.976562 0.789062 203.070312 2.195312 201.664062 C 3.601562 200.257812 5.511719 199.464844 7.5 199.464844 Z M 7.5 199.464844 " clip-rule="nonzero"/></clipPath></defs><g clip-path="url(#435f5599be)"><g clip-path="url(#4c7bd65fda)"><path fill="#8c52ff" d="M 0 0 L 175.535156 0 L 175.535156 175.535156 L 0 175.535156 Z M 0 0 " fill-opacity="1" fill-rule="nonzero"/></g></g><g clip-path="url(#ec121489bd)"><g clip-path="url(#e5a95c5f13)"><path fill="#004aad" d="M 0 199.464844 L 175.535156 199.464844 L 175.535156 375 L 0 375 Z M 0 199.464844 " fill-opacity="1" fill-rule="nonzero"/></g></g></svg>